<svg xmlns="http://www.w3.org/2000/svg" viewBox="0 0 64 64">
  <defs>
    <linearGradient id="influencer-gradient" x1="10" y1="8" x2="55" y2="56" gradientUnits="userSpaceOnUse">
      <stop stop-color="#246BFF" />
      <stop offset=".48" stop-color="#8618D9" />
      <stop offset="1" stop-color="#FF195D" />
    </linearGradient>
    <linearGradient id="accent-gradient" x1="43" y1="12" x2="56" y2="55" gradientUnits="userSpaceOnUse">
      <stop stop-color="#FF7A18" />
      <stop offset="1" stop-color="#FF195D" />
    </linearGradient>
  </defs>
  <rect width="64" height="64" rx="14" fill="#0A1020" />
  <circle cx="18" cy="15" r="5" fill="#FF277A" />
  <path d="M13 27c0-3.3 2.7-6 6-6s6 2.7 6 6v24c0 3.3-2.7 6-6 6s-6-2.7-6-6V27Z" fill="url(#influencer-gradient)" />
  <path d="M29 27c0-3.3 2.7-6 6-6h1.8c2.2 0 4.2 1.2 5.3 3l9.1 15.6V27c0-3.3 2.7-6 6-6s6 2.7 6 6v24c0 3.3-2.7 6-6 6h-1.6c-2.2 0-4.2-1.2-5.3-3L41 38.2V51c0 3.3-2.7 6-6 6s-6-2.7-6-6V27Z" transform="translate(-1 -1) scale(.91)" fill="url(#influencer-gradient)" />
  <path d="M52 25c0-2.8 2.3-5 5-5s5 2.2 5 5v26c0 2.8-2.3 5-5 5s-5-2.2-5-5V25Z" fill="url(#accent-gradient)" transform="scale(.86) translate(9 5)" />
</svg>
